<svg xmlns="http://www.w3.org/2000/svg" width="1920" height="1080" viewBox="0 0 1920 1080">
  <defs>
    <radialGradient id="g1" cx="30%" cy="26%" r="55%">
      <stop offset="0" stop-color="#1d3f8f" stop-opacity=".55"/>
      <stop offset="1" stop-color="#1d3f8f" stop-opacity="0"/>
    </radialGradient>
    <radialGradient id="g2" cx="76%" cy="62%" r="48%">
      <stop offset="0" stop-color="#155e75" stop-opacity=".5"/>
      <stop offset="1" stop-color="#155e75" stop-opacity="0"/>
    </radialGradient>
    <radialGradient id="g3" cx="52%" cy="44%" r="30%">
      <stop offset="0" stop-color="#5ee1ff" stop-opacity=".22"/>
      <stop offset=".55" stop-color="#4f80ff" stop-opacity=".08"/>
      <stop offset="1" stop-color="#4f80ff" stop-opacity="0"/>
    </radialGradient>
    <linearGradient id="beam1" x1="0" y1="0" x2="1" y2="1">
      <stop offset="0" stop-color="#5ee1ff" stop-opacity="0"/>
      <stop offset=".5" stop-color="#5ee1ff" stop-opacity=".14"/>
      <stop offset="1" stop-color="#5ee1ff" stop-opacity="0"/>
    </linearGradient>
    <linearGradient id="beam2" x1="0" y1="1" x2="1" y2="0">
      <stop offset="0" stop-color="#4f80ff" stop-opacity="0"/>
      <stop offset=".5" stop-color="#4f80ff" stop-opacity=".1"/>
      <stop offset="1" stop-color="#4f80ff" stop-opacity="0"/>
    </linearGradient>
    <filter id="blur40"><feGaussianBlur stdDeviation="40"/></filter>
    <filter id="blur18"><feGaussianBlur stdDeviation="18"/></filter>
  </defs>
  <rect width="1920" height="1080" fill="#04070f"/>
  <rect width="1920" height="1080" fill="url(#g1)"/>
  <rect width="1920" height="1080" fill="url(#g2)"/>
  <rect width="1920" height="1080" fill="url(#g3)"/>
  <g filter="url(#blur40)">
    <ellipse cx="1000" cy="470" rx="330" ry="300" fill="#0e2a5c" opacity=".55"/>
    <ellipse cx="985" cy="455" rx="200" ry="185" fill="#1a4a8f" opacity=".5"/>
    <ellipse cx="975" cy="445" rx="110" ry="100" fill="#2ad4ee" opacity=".28"/>
  </g>
  <g filter="url(#blur18)">
    <path d="M-100,860 L2020,300" stroke="url(#beam1)" stroke-width="180" fill="none"/>
    <path d="M-100,240 L2020,760" stroke="url(#beam2)" stroke-width="140" fill="none"/>
  </g>
  <g fill="#c4d8ff">
    <circle cx="240" cy="210" r="2.2" opacity=".5"/>
    <circle cx="480" cy="720" r="1.6" opacity=".35"/>
    <circle cx="820" cy="150" r="1.8" opacity=".4"/>
    <circle cx="1180" cy="840" r="2" opacity=".45"/>
    <circle cx="1480" cy="260" r="1.5" opacity=".35"/>
    <circle cx="1680" cy="580" r="2.4" opacity=".5"/>
    <circle cx="1340" cy="120" r="1.4" opacity=".3"/>
    <circle cx="90" cy="560" r="1.8" opacity=".4"/>
    <circle cx="1810" cy="920" r="1.6" opacity=".35"/>
    <circle cx="640" cy="940" r="1.7" opacity=".3"/>
  </g>
  <rect width="1920" height="1080" fill="#04070f" opacity=".12"/>
</svg>
